<?xml version="1.0" encoding="UTF-8"?>
<svg width="32" height="32" viewBox="0 0 32 32" fill="none" xmlns="http://www.w3.org/2000/svg">
  <rect width="32" height="32" rx="8" fill="#25D366"/>
  <path d="M24 15.5C24 20.1944 20.1944 24 15.5 24C13.8326 24 12.2772 23.5575 10.9352 22.7787L8 24L9.22128 21.0648C8.44253 19.7228 8 18.1674 8 16.5C8 11.8056 11.8056 8 16.5 8C21.1944 8 24 11.8056 24 15.5Z" stroke="white" stroke-width="2"/>
  <path d="M18 17C17.4477 17 17 16.5523 17 16C17 15.4477 17.4477 15 18 15C18.5523 15 19 15.4477 19 16C19 16.5523 18.5523 17 18 17Z" fill="white"/>
  <path d="M15 17C14.4477 17 14 16.5523 14 16C14 15.4477 14.4477 15 15 15C15.5523 15 16 15.4477 16 16C16 16.5523 15.5523 17 15 17Z" fill="white"/>
  <path d="M12 17C11.4477 17 11 16.5523 11 16C11 15.4477 11.4477 15 12 15C12.5523 15 13 15.4477 13 16C13 16.5523 12.5523 17 12 17Z" fill="white"/>
</svg>
