<?xml version="1.0" encoding="UTF-8" standalone="no"?>
<!-- Created with Inkscape (http://www.inkscape.org/) -->

<svg
   version="1.1"
   id="svg1"
   width="1500"
   height="450"
   viewBox="0 0 1500 450"
   xmlns="http://www.w3.org/2000/svg"
   xmlns:svg="http://www.w3.org/2000/svg">
  <defs
     id="defs1" />
  <g
     id="g1">
    <path
       style="fill:#b5ff00;fill-opacity:1"
       d="m 196.0097,367.19039 c -7.48572,-9.01654 -15.05838,-20.38338 -20.53507,-29.30667 2.6661,-2.95598 6.68659,-6.75702 9.11357,-9.11872 17.12831,33.35106 40.39832,70.03853 73.93754,74.16048 -29.51568,0.54282 -48.05236,-18.31362 -62.51604,-35.73509 z m 61.11632,23.22586 c -13.43772,-4.96869 -35.7894,-24.86888 -69.46687,-103.74982 4.01639,-4.46678 8.42826,-8.54269 14.93425,-16.44882 11.14459,34.83171 13.41604,42.97964 25.3358,70.57477 9.14308,21.1669 21.98952,41.53762 39.29783,43.36306 3.97439,0.5872 9.22369,0.0155 13.54655,-1.99618 7.14463,-3.32476 15.31574,-8.55909 23.27305,-16.38786 15.16606,-14.9211 30.24756,-36.6463 35.56093,-42.22658 -9.30301,14.38541 -25.22902,36.30699 -37.15984,48.27442 -9.14401,9.17207 -13.04849,13.2754 -22.90104,17.68095 -8.21146,3.67174 -15.88102,3.33414 -22.42066,0.91606 z m 427.28804,-3.93635 c -12.94298,-3.65238 -19.36668,-16.20405 -17.12464,-33.29406 0.41612,-3.1719 1.50634,-8.09197 4.29314,-12.64009 2.91535,-4.75792 7.72834,-8.37923 12.59744,-10.0164 5.62144,-1.89015 14.55751,-2.53653 20.09997,-0.41984 4.60553,1.75886 6.40362,3.15432 6.40362,3.15432 v 9.10688 l -6.28015,-2.93567 c -8.1591,-3.81398 -15.47795,-2.11848 -21.65163,2.73773 -8.51859,6.70073 -8.45851,25.41686 -0.073,33.10343 5.45163,4.99724 14.31875,5.72318 22.63192,1.85285 l 5.25,-2.44423 0.12288,8.92853 c 0,0 -3.02618,1.80643 -6.70591,3.19728 -5.28683,1.9983 -13.80919,1.29311 -19.56362,-0.33073 z m 139.24556,0.13469 c -10.39457,-3.24586 -16.95778,-11.89372 -17.64497,-24.98638 -1.04587,-19.92638 9.11795,-32.60603 26.67743,-32.60603 16.7033,0 27.72876,11.75439 27.72876,30.329 0,20.91658 -17.35287,33.32394 -36.76122,27.26341 z m 16.2299,-8.38581 c 4.31696,-1.80374 8.35059,-6.7366 9.75642,-11.93144 1.51398,-5.5945 0.61931,-15.71964 -1.80393,-20.41552 -6.68247,-12.94958 -26.34417,-9.96463 -31.06061,3.87736 -1.82024,5.34212 -1.68033,11.63845 -0.17668,17.05258 2.81479,10.13508 13.64437,15.44505 23.2848,11.41702 z m 117.51873,9.21093 c -7.28305,-1.77305 -14.77864,-7.09914 -17.62694,-13.92763 -2.60347,-6.24156 -3.22387,-18.00131 -1.20972,-25.44219 3.34127,-12.34364 12.74597,-19.24484 25.80899,-19.24484 12.95101,0 22.30155,6.83503 25.53459,18.47258 0.771,2.77525 1.67628,8.17043 1.63607,13.11656 -0.0402,4.94614 -1.02592,9.44323 -1.95163,12.16004 -4.10934,12.06026 -18.46073,18.20818 -32.19136,14.86548 z m 14.77744,-9.9074 c 10.86213,-5.25827 12.89225,-25.82569 3.53271,-35.59725 -4.89747,-5.11306 -14.37551,-5.34954 -21.2118,-1.19214 -8.7167,5.30094 -10.11062,23.67965 -2.93749,33.08411 4.77074,6.25475 12.82165,7.47874 20.61658,3.70528 z m 57.60191,9.08873 c -13.2024,-4.71165 -19.265,-21.31328 -15.1658,-37.47802 3.3669,-13.27722 12.6088,-19.84266 26.1948,-19.9073 4.3896,-0.0209 9.3128,0.66541 12.4941,1.74168 l 5.5107,2.21057 -0.2257,9.79501 c 0,0 -3.735,-2.24599 -5.9008,-3.292 -5.9586,-2.87783 -11.4894,-2.49918 -16.9385,-1.44271 -5.0302,0.97527 -8.3839,4.70229 -10.5407,9.74897 -2.3737,5.55401 -2.289,16.74677 0.4967,22.36237 4.0128,8.08922 13.6346,11.30298 22.8278,7.62462 3.9976,-1.59953 4.0202,-1.6389 4.0202,-7 l -0.1738,-4.8701 -11.6951,-0.0869 -0.087,-7.86886 h 21.1951 l -0.1311,22.88383 -6.1633,3.52794 c -7.4925,4.28887 -18.1393,4.75555 -25.718,2.05089 z m -468.47264,-47.57872 -16.86863,0.0335 -6.2e-4,-9.23725 h 42.97513 v 9.24575 h -16.73725 v 48.24575 l -9.36863,-0.12287 z m 47.13138,-9.19527 36.22875,10e-6 0.006,8.60588 -26.7521,-0.12288 v 15.77125 h 24.75425 l 0.12287,7.983 -25,0.12288 v 16.5085 h 27 v 8.4915 h -36.2769 z m 126.74574,-0.008 9.36013,0.0372 27.88987,39.55786 0.0128,-39.71793 h 10.08883 v 57.61437 l -9.85163,-0.14807 -28.12287,-39.8064 0.073,39.8316 h -9.32722 z m 148.9342,-0.18698 9.62952,0.007 0.0142,49.02132 h 24.8333 l 0.17377,8.6082 h -34.47706 z m 201.32852,0.18649 10.2565,-0.19485 -0.036,57.64419 -10.0703,-0.0869 z m 28.2281,57.50263 22.204,-57.55564 11.4065,-0.0403 22.1344,57.65214 -10.2017,-0.0882 -4.9793,-14.1082 -25.5636,0.17377 -5.1155,13.91312 z m 36.9192,-22.47072 -9.1764,-25.53832 -9.574,25.52958 z M 130.12402,323.4265 c 2.21825,-2.52914 5.40966,-6.14662 8.67426,-9.91048 16.78768,25.67256 36.07812,54.08192 56.40115,73.79705 -20.80174,-6.45119 -47.16736,-40.28967 -65.07541,-63.88657 z m 9.2585,-55.10393 c 1.0123,-0.87885 10.51531,-10.42132 14.62646,-14.59623 0.98158,7.26422 19.01015,53.67008 26.18622,66.71939 -3.11089,3.13873 -6.55632,6.71614 -9.45082,9.57715 -10.75105,-17.41323 -27.80712,-53.99861 -31.36186,-61.70031 z m -37.05459,14.06557 c 3.65968,-3.50248 8.51645,-8.2318 11.58471,-11.31665 3.4913,6.08202 14.04578,26.47065 19.97968,34.54364 -2.80479,2.76684 -5.62642,6.10595 -9.06294,10.19408 -7.25345,-10.50052 -15.50917,-23.08576 -22.50145,-33.42107 z m 440.53769,-163.7527 h -61.30491 l -0.34754,-38.390159 165.34754,-0.34754 V 118.2879 h -62 v 179.65245 h -41.69509 z m 111.98316,179.25 82.21193,-217.981639 48.66829,0.14639 82.5268,218.287249 -43.05573,0.13327 -17.84953,-49.68281 h -92.78342 l -18.3017,48.98772 z m 139.22657,-84.73586 -33.29203,-91.11862 -33.22261,91.23286 z M 890.82346,79.855571 c 0,0 29.07142,0.0598 43.2415,0.003 22.01135,-0.0883 46.72546,1.19714 51.99575,1.843 35.46869,4.34658 56.99899,21.240049 63.81859,49.928289 2.2312,9.38575 3.9416,25.13212 0.9631,39.45463 -5.1771,24.89453 -23.3848,43.40947 -51.3205,50.71798 -9.10026,2.42344 -9.56947,3.35552 -36.00783,3.77549 l -30.70761,-0.28849 v 72.79504 h -41.983 z m 90.88123,107.342159 c 12.17998,-2.66937 19.20741,-7.536 23.47371,-16.25592 2.2662,-4.63199 2.7956,-7.26303 3.1742,-15.77473 0.9966,-22.40916 -7.6063,-32.858 -28.62136,-36.84245 -5.28794,-1.00259 -13.3332,-1.24032 -26.767,-1.24032 l -20.15778,0.24575 -0.24575,71.58427 21.25,0.36125 c 14.21685,0.61736 23.98682,-1.22156 27.89398,-2.07785 z M 1078.8234,79.855571 c 0,0 66.1833,-1.73105 97.7373,2.18963 34.0991,4.2369 53.8427,20.871349 61.1681,48.393599 2.8982,10.8888 4.5952,26.83477 0.1978,42.98756 -3.4521,12.68045 -6.8616,20.63618 -15.8716,29.7787 -9.4771,9.61654 -19.8642,14.86599 -34.9392,18.88373 -8.9088,2.37433 -7.0744,3.07107 -33.3901,3.48909 l -32.9192,-0.0428 0.2457,72.79504 -42.2288,-0.24575 z m 93.6491,107.338569 c 7.6418,-1.77055 17.153,-8.55731 21.2476,-17.11379 3.5864,-7.49451 3.8594,-24.75896 0.8285,-32.8195 -7.2617,-15.06104 -14.4448,-18.94778 -52.3556,-20.17654 h -21.6323 v 71.83613 c 0,0 38.6927,1.33646 51.9118,-1.7263 z m 144.8424,35.72124 -79.2287,-143.105999 44.7287,-0.18971 55.826,105.710489 56.9113,-105.427639 43.0758,-0.0468 -79.33,142.844359 0.2457,75.63013 -41.983,-0.24575 z m -964.20351,67.67219 c 4.23068,-6.18282 13.58608,-23.47465 19.82861,-34.31985 5.57511,1.19756 7.68754,1.76336 13.17365,3.10421 -7.11625,15.11876 -10.57282,22.65302 -17.43987,35.49924 -1.50554,-0.34638 -9.88653,-2.24676 -15.56239,-4.2836 z m -105.94713,-6.81297 27.86147,-31.42754 c 0,0 22.90361,5.47692 22.90361,5.83788 0,1.52063 -27.02144,32.68985 -27.02144,32.68985 z m -73.67357,-33.94065 c 5.0893,-5.5413 10.38927,-11.02672 16.32737,-17.2414 3.37467,9.7443 6.17336,18.65645 9.40232,28.00366 -5.06035,5.24453 -10.49963,10.53092 -15.21999,16.61572 -2.5624,-6.87826 -7.60588,-20.08931 -10.5097,-27.37798 z m 145.43573,15.11054 c 6.97803,-8.90033 25.80584,-29.42387 44.36498,-55.72807 0,0 6.88394,1.64725 12.62094,3.34142 -14.61788,25.25675 -26.90826,42.19823 -37.4594,57.70702 -5.82862,-1.5024 -14.00383,-3.80368 -19.52652,-5.32037 z m -36.73233,-20.57754 c 3.16174,-4.50436 16.39786,-19.35004 19.23976,-22.53901 8.48097,2.20699 14.98646,3.87954 21.95228,5.64995 -0.51399,1.11604 -13.12458,17.19051 -18.31634,22.3065 -1.61814,-0.42179 -14.35974,-3.147 -22.8757,-5.41744 z m 95.58604,3.11881 c 7.01346,-13.50584 15.50699,-30.09388 20.87389,-42.97432 5.43016,-13.03223 13.33147,-32.60401 14.56745,-41.27205 3.16796,16.34607 -4.1458,45.80979 -22.90975,87.01339 -3.39574,-0.57875 -6.56369,-1.16495 -12.53159,-2.76702 z M 155.35884,200.00592 c 5.16184,-5.18967 10.01002,-9.9528 17.53366,-17.28561 3.94371,11.80061 8.90075,26.26777 13.28203,39.67151 -4.44847,5.04314 -11.68741,12.68751 -16.03809,17.59117 -3.14558,-7.51127 -10.02326,-28.29309 -14.7776,-39.97707 z m -87.109286,-52.7697 c 3.81522,-7.07313 11.59176,-12.9138 21.31115,-16.06787 20.912496,-6.78638 48.312426,-6.90977 74.625146,-4.97502 21.74555,1.59893 26.01147,2.02773 36.07568,3.64409 2.38328,7.23624 4.15351,13.54397 6.27856,20.39697 -21.84876,-5.05689 -72.19833,-14.44484 -90.47938,-13.93298 -21.580884,0.60425 -44.849516,3.72672 -44.928376,33.2914 -0.0697,26.12189 15.19093,55.84904 22.33544,74.01297 -22.72758,-43.50023 -35.05618,-73.53479 -25.21822,-96.36956 z m 240.387396,67.0649 c 0,0 4.69548,-5.12761 11.68432,-12.9595 23.98076,-26.8735 41.54278,-50.13155 49.17829,-65.12871 5.44717,-10.69895 7.55738,-19.21099 6.8089,-27.46536 -0.64796,-7.1458 -3.76652,-9.806623 -8.66151,-15.855419 -13.53411,-16.72426 -75.41174,-21.44629 -81.40054,-23.40201 26.29324,1.73269 53.49573,3.2134 78.06112,13.59379 15.08054,7.09056 21.73338,16.452276 20.88915,32.369309 -1.08738,20.50152 -15.50329,50.7456 -50.51526,96.89712 -2.53319,3.33916 -4.88346,6.56895 -4.88346,6.56895 z m 59.64579,-13.62465 c 11.69733,-18.50054 21.84628,-37.67092 28.36632,-58.65536 1.74296,-6.0267 2.48092,-10.8273 3.04737,-18.84141 -0.34035,-7.06994 -1.51406,-14.37538 -4.5749,-21.43118 6.77753,9.27274 8.10229,18.93739 8.42182,29.4633 0.025,8.82621 -1.76796,22.30601 -5.78566,34.38099 -3.3576,10.09111 -12.78605,30.45682 -17.53395,38.36897 -3.70102,-1.02052 -6.20014,-1.4946 -11.941,-3.28531 z M 256.9266,160.44237 c -0.56226,-2.22831 -4.8116,-15.07447 -7.29298,-22.91463 13.70423,1.78727 28.33465,4.91249 41.84731,7.29653 2.21119,8.00957 4.72148,16.52224 6.32695,23.92421 -8.8597,-1.87125 -27.05044,-5.59417 -40.88128,-8.30611 z m -39.45641,-8.07309 c -1.46484,-4.41569 -4.46038,-14.09138 -6.72747,-21.40784 4.90787,0.42697 24.1565,4.0254 28.76155,4.7501 0.6771,2.39594 5.10739,16.87828 6.65942,22.72865 -7.92313,-1.80484 -19.91011,-4.38874 -28.6935,-6.07091 z M 114.51689,99.029367 c 21.94229,-5.365936 37.05412,-5.470606 47.62901,-5.436326 1.11872,4.271026 2.52289,8.553109 3.02919,11.908069 -25.83447,-0.75162 -78.761376,-2.51232 -99.161076,26.11332 8.6078,-19.55387 29.529382,-27.46074 48.502876,-32.585063 z m 60.54733,7.046443 c -0.8721,-3.63031 -2.26985,-8.807573 -3.52866,-12.930699 17.09439,-0.0478 49.19633,1.52728 68.80081,3.35824 1.4645,5.669059 3.83384,13.887799 5.25598,19.893889 -7.86931,-2.20557 -36.59388,-7.51305 -70.52813,-10.32143 z M 109.28113,85.430971 c 16.33266,-12.14254 43.7736,-19.18809 88.13888,-24.05101 1.33043,4.53048 2.66796,9.85527 3.32501,12.36852 -29.96105,2.0696 -52.36996,2.53802 -91.46389,11.68249 z m 97.86357,-24.67703 c 3.51666,-0.75198 33.76397,-2.98572 38.97047,-2.93998 1.80696,5.45655 3.19424,11.12657 4.56387,16.06906 -10.10304,-0.97344 -29.31308,-0.54025 -39.38446,0.0614 -1.72875,-5.325 -2.90396,-9.12846 -4.14988,-13.19052 z"
       id="path1" />
  </g>
</svg>
