<svg width="128" height="128" viewBox="0 0 128 128" fill="none" xmlns="http://www.w3.org/2000/svg">
  <rect width="128" height="128" rx="24" fill="#25D366"/>
  <path d="M64 108C88.3005 108 108 88.3005 108 64C108 39.6995 88.3005 20 64 20C39.6995 20 20 39.6995 20 64C20 72.4797 22.3457 80.4209 26.4837 87.2509L21.0714 106.929L40.7491 101.516C47.5791 105.654 55.5203 108 64 108Z" fill="white"/>
  <path d="M89 65.5C89 78.4787 78.4787 89 65.5 89C61.2391 89 57.2384 87.9387 53.7399 86.0399L42 89L44.9601 77.2601C43.0613 73.7616 42 69.7609 42 65.5C42 52.5213 52.5213 42 65.5 42C78.4787 42 89 52.5213 89 65.5Z" fill="#25D366"/>
  <path d="M77.8947 69.4737L72.1053 67.0526C71.3684 66.8421 70.6316 67.0526 70.2105 67.6842L68.3158 70.1053C67.8947 70.7368 67.1579 70.9474 66.4211 70.7368C63.7895 69.8947 58.8421 65.3684 57.7895 62.7368C57.3684 62 57.5789 61.2632 58.2105 60.8421L60.6316 58.9474C61.2632 58.5263 61.4737 57.7895 61.2632 57.0526L58.8421 51.2632C58.4211 50.1053 57.1579 49.6842 56.2105 50.3158C54.1053 51.6842 52.4211 53.7895 52 56.2105C51.1579 61.1579 53.2632 67.4737 59.2632 73.0526C65.8947 79.2632 72.7368 80.7368 77.5789 79.2632C79.7895 78.6316 81.6842 76.7368 82.8421 74.6316C83.4737 73.4737 82.8421 72.2105 81.6842 71.7895L77.8947 69.4737Z" fill="white"/>
</svg>
